<svg width="22" height="22" viewBox="0 0 22 22" fill="none" xmlns="http://www.w3.org/2000/svg">
<path fill-rule="evenodd" clip-rule="evenodd" d="M4.58337 4.58333C4.07711 4.58333 3.66671 4.99374 3.66671 5.5V18.3333C3.66671 18.8396 4.07711 19.25 4.58337 19.25H17.4167C17.923 19.25 18.3334 18.8396 18.3334 18.3333V5.5C18.3334 4.99374 17.923 4.58333 17.4167 4.58333H4.58337ZM1.83337 5.5C1.83337 3.98122 3.06459 2.75 4.58337 2.75H17.4167C18.9355 2.75 20.1667 3.98122 20.1667 5.5V18.3333C20.1667 19.8521 18.9355 21.0833 17.4167 21.0833H4.58337C3.06459 21.0833 1.83337 19.8521 1.83337 18.3333V5.5Z" fill="#637381"/>
<path fill-rule="evenodd" clip-rule="evenodd" d="M14.6667 0.916656C15.1729 0.916656 15.5833 1.32706 15.5833 1.83332V5.49999C15.5833 6.00625 15.1729 6.41666 14.6667 6.41666C14.1604 6.41666 13.75 6.00625 13.75 5.49999V1.83332C13.75 1.32706 14.1604 0.916656 14.6667 0.916656Z" fill="#637381"/>
<path fill-rule="evenodd" clip-rule="evenodd" d="M7.33329 0.916656C7.83955 0.916656 8.24996 1.32706 8.24996 1.83332V5.49999C8.24996 6.00625 7.83955 6.41666 7.33329 6.41666C6.82703 6.41666 6.41663 6.00625 6.41663 5.49999V1.83332C6.41663 1.32706 6.82703 0.916656 7.33329 0.916656Z" fill="#637381"/>
<path fill-rule="evenodd" clip-rule="evenodd" d="M1.83337 9.16667C1.83337 8.66041 2.24378 8.25 2.75004 8.25H19.25C19.7563 8.25 20.1667 8.66041 20.1667 9.16667C20.1667 9.67293 19.7563 10.0833 19.25 10.0833H2.75004C2.24378 10.0833 1.83337 9.67293 1.83337 9.16667Z" fill="#637381"/>
</svg>
