<svg width="29" height="29" viewBox="0 0 29 29" fill="none" xmlns="http://www.w3.org/2000/svg">
<g clip-path="url(#clip0_1_921)">
<path fill-rule="evenodd" clip-rule="evenodd" d="M14.2731 0.988281C15.05 0.988281 15.6798 1.62728 15.6798 2.41553V27.5352C15.6798 28.3235 15.05 28.9625 14.2731 28.9625C13.4962 28.9625 12.8663 28.3235 12.8663 27.5352V2.41553C12.8663 1.62728 13.4962 0.988281 14.2731 0.988281Z" fill="white"/>
<path fill-rule="evenodd" clip-rule="evenodd" d="M7.67966 7.14402C8.68216 6.1269 10.0418 5.55549 11.4596 5.55549H19.9001C20.677 5.55549 21.3068 6.1945 21.3068 6.98275C21.3068 7.771 20.677 8.41 19.9001 8.41H11.4596C10.788 8.41 10.144 8.68067 9.6691 9.16246C9.19423 9.64425 8.92745 10.2977 8.92745 10.9791C8.92745 11.6604 9.19423 12.3139 9.6691 12.7957C10.144 13.2774 10.788 13.5481 11.4596 13.5481H17.0866C18.5043 13.5481 19.864 14.1195 20.8665 15.1366C21.869 16.1538 22.4322 17.5333 22.4322 18.9717C22.4322 20.4101 21.869 21.7896 20.8665 22.8067C19.864 23.8238 18.5043 24.3952 17.0866 24.3952H7.5207C6.74378 24.3952 6.11395 23.7562 6.11395 22.968C6.11395 22.1797 6.74378 21.5407 7.5207 21.5407H17.0866C17.7582 21.5407 18.4022 21.2701 18.8771 20.7883C19.352 20.3065 19.6187 19.653 19.6187 18.9717C19.6187 18.2903 19.352 17.6369 18.8771 17.1551C18.4022 16.6733 17.7582 16.4026 17.0866 16.4026H11.4596C10.0418 16.4026 8.68216 15.8312 7.67966 14.8141C6.67715 13.797 6.11395 12.4175 6.11395 10.9791C6.11395 9.54064 6.67715 8.16113 7.67966 7.14402Z" fill="white"/>
</g>
<defs>
<clipPath id="clip0_1_921">
<rect width="27.9742" height="27.9742" fill="white" transform="translate(0.286011 0.988281)"/>
</clipPath>
</defs>
</svg>
