<svg width="14" height="14" viewBox="0 0 14 14" fill="none" xmlns="http://www.w3.org/2000/svg">
<path fill-rule="evenodd" clip-rule="evenodd" d="M6.41667 2.33335C4.16151 2.33335 2.33334 4.16152 2.33334 6.41669C2.33334 8.67185 4.16151 10.5 6.41667 10.5C8.67183 10.5 10.5 8.67185 10.5 6.41669C10.5 4.16152 8.67183 2.33335 6.41667 2.33335ZM1.16667 6.41669C1.16667 3.51719 3.51718 1.16669 6.41667 1.16669C9.31617 1.16669 11.6667 3.51719 11.6667 6.41669C11.6667 9.31618 9.31617 11.6667 6.41667 11.6667C3.51718 11.6667 1.16667 9.31618 1.16667 6.41669Z" fill="#637381"/>
<path fill-rule="evenodd" clip-rule="evenodd" d="M9.30002 9.3C9.52783 9.0722 9.89717 9.0722 10.125 9.3L12.6625 11.8375C12.8903 12.0653 12.8903 12.4347 12.6625 12.6625C12.4347 12.8903 12.0653 12.8903 11.8375 12.6625L9.30002 10.125C9.07221 9.89716 9.07221 9.52781 9.30002 9.3Z" fill="#637381"/>
</svg>
