<svg width="29" height="29" viewBox="0 0 29 29" fill="none" xmlns="http://www.w3.org/2000/svg">
<path fill-rule="evenodd" clip-rule="evenodd" d="M11.1632 25.7737C11.3077 25.7737 11.4249 25.6566 11.4249 25.512C11.4249 25.3675 11.3077 25.2504 11.1632 25.2504C11.0187 25.2504 10.9015 25.3675 10.9015 25.512C10.9015 25.6566 11.0187 25.7737 11.1632 25.7737ZM8.80823 25.512C8.80823 24.2114 9.86258 23.1571 11.1632 23.1571C12.4638 23.1571 13.5182 24.2114 13.5182 25.512C13.5182 26.8127 12.4638 27.867 11.1632 27.867C9.86258 27.867 8.80823 26.8127 8.80823 25.512Z" fill="white"/>
<path fill-rule="evenodd" clip-rule="evenodd" d="M22.6763 25.7737C22.8208 25.7737 22.9379 25.6566 22.9379 25.512C22.9379 25.3675 22.8208 25.2504 22.6763 25.2504C22.5317 25.2504 22.4146 25.3675 22.4146 25.512C22.4146 25.6566 22.5317 25.7737 22.6763 25.7737ZM20.3213 25.512C20.3213 24.2114 21.3756 23.1571 22.6763 23.1571C23.9769 23.1571 25.0312 24.2114 25.0312 25.512C25.0312 26.8127 23.9769 27.867 22.6763 27.867C21.3756 27.867 20.3213 26.8127 20.3213 25.512Z" fill="white"/>
<path fill-rule="evenodd" clip-rule="evenodd" d="M1.48169 4.58014C1.48169 3.85757 2.06744 3.27182 2.79 3.27182H6.97661C7.60019 3.27182 8.1371 3.71192 8.25949 4.32337L9.09645 8.50508H25.8164C26.2063 8.50508 26.5759 8.67899 26.8244 8.97942C27.073 9.27984 27.1745 9.67547 27.1015 10.0585L25.425 18.8497C25.2695 19.6327 24.8434 20.3361 24.2216 20.8367C23.6033 21.3344 22.8306 21.6002 22.0373 21.5882H11.886C11.0927 21.6002 10.32 21.3344 9.70179 20.8367C9.0803 20.3364 8.65445 19.6336 8.49868 18.8511C8.49858 18.8507 8.49849 18.8502 8.49839 18.8497L6.75152 10.1218C6.7435 10.0887 6.73675 10.055 6.73131 10.0209L5.90421 5.88845H2.79C2.06744 5.88845 1.48169 5.3027 1.48169 4.58014ZM9.62017 11.1217L11.0649 18.3399C11.1008 18.5206 11.1991 18.683 11.3426 18.7985C11.4861 18.914 11.6657 18.9754 11.8499 18.9718L11.8749 18.9716H22.0484L22.0735 18.9718C22.2577 18.9754 22.4372 18.914 22.5808 18.7985C22.7233 18.6838 22.8212 18.5229 22.8577 18.3437L24.235 11.1217H9.62017Z" fill="white"/>
</svg>
