<svg width="29" height="29" viewBox="0 0 29 29" fill="none" xmlns="http://www.w3.org/2000/svg">
<g clip-path="url(#clip0_1_937)">
<path fill-rule="evenodd" clip-rule="evenodd" d="M1.88109 18.8869C3.00769 17.7603 4.53568 17.1274 6.12892 17.1274H15.4538C17.047 17.1274 18.575 17.7603 19.7016 18.8869C20.8282 20.0135 21.4611 21.5415 21.4611 23.1348V25.466C21.4611 26.2087 20.8589 26.8109 20.1162 26.8109C19.3734 26.8109 18.7712 26.2087 18.7712 25.466V23.1348C18.7712 22.2549 18.4217 21.4111 17.7996 20.7889C17.1774 20.1668 16.3336 19.8173 15.4538 19.8173H6.12892C5.24907 19.8173 4.40526 20.1668 3.78311 20.7889C3.16096 21.4111 2.81144 22.2549 2.81144 23.1348V25.466C2.81144 26.2087 2.20929 26.8109 1.46651 26.8109C0.723726 26.8109 0.121582 26.2087 0.121582 25.466V23.1348C0.121582 21.5415 0.754497 20.0135 1.88109 18.8869Z" fill="white"/>
<path fill-rule="evenodd" clip-rule="evenodd" d="M10.7913 5.83002C8.95914 5.83002 7.47385 7.31531 7.47385 9.14751C7.47385 10.9797 8.95914 12.465 10.7913 12.465C12.6235 12.465 14.1088 10.9797 14.1088 9.14751C14.1088 7.31531 12.6235 5.83002 10.7913 5.83002ZM4.784 9.14751C4.784 5.82975 7.47357 3.14017 10.7913 3.14017C14.1091 3.14017 16.7987 5.82975 16.7987 9.14751C16.7987 12.4653 14.1091 15.1548 10.7913 15.1548C7.47357 15.1548 4.784 12.4653 4.784 9.14751Z" fill="white"/>
<path fill-rule="evenodd" clip-rule="evenodd" d="M22.3105 18.2874C22.4962 17.5682 23.2297 17.1358 23.9489 17.3215C25.2377 17.6542 26.3794 18.4056 27.1949 19.4575C28.0104 20.5095 28.4534 21.8025 28.4544 23.1335V25.4657C28.4544 26.2085 27.8522 26.8106 27.1095 26.8106C26.3667 26.8106 25.7646 26.2085 25.7646 25.4657V23.1349C25.7639 22.4001 25.5192 21.6863 25.069 21.1055C24.6187 20.5246 23.9882 20.1096 23.2765 19.9259C22.5573 19.7402 22.1248 19.0066 22.3105 18.2874Z" fill="white"/>
<path fill-rule="evenodd" clip-rule="evenodd" d="M17.6476 4.30302C17.8319 3.58345 18.5646 3.14948 19.2841 3.33372C20.5763 3.66458 21.7217 4.41609 22.5396 5.4698C23.3575 6.5235 23.8014 7.81945 23.8014 9.15333C23.8014 10.4872 23.3575 11.7832 22.5396 12.8369C21.7217 13.8906 20.5763 14.6421 19.2841 14.9729C18.5646 15.1572 17.8319 14.7232 17.6476 14.0036C17.4634 13.2841 17.8974 12.5514 18.6169 12.3671C19.3305 12.1844 19.963 11.7694 20.4147 11.1875C20.8664 10.6056 21.1116 9.88995 21.1116 9.15333C21.1116 8.41671 20.8664 7.70104 20.4147 7.11914C19.963 6.53724 19.3305 6.12223 18.6169 5.93952C17.8974 5.75528 17.4634 5.02259 17.6476 4.30302Z" fill="white"/>
</g>
<defs>
<clipPath id="clip0_1_937">
<rect width="27.9742" height="27.9742" fill="white" transform="translate(0.300903 0.988281)"/>
</clipPath>
</defs>
</svg>
