<svg xmlns="http://www.w3.org/2000/svg">

<symbol id="social-lupa" viewBox="0 0 20 20">
<path d="M14.5726 16.0029C10.5755 19.1865 4.988 18.3056 2.02842 14.6542C-0.828088 11.129 -0.64944 6.04347 2.44943 2.82482C5.65137 -0.500594 10.6854 -0.944524 14.3346 1.78337C15.642 2.76051 16.6183 4.00364 17.2542 5.50838C17.8938 7.02186 18.0881 8.59654 17.8663 10.2205C17.6452 11.837 17 13.2775 15.9499 14.6217C16.0349 14.6773 16.1255 14.7173 16.1904 14.7822C17.3448 15.9311 18.4947 17.0843 19.6491 18.2331C19.9227 18.5054 20.0589 18.8225 19.9776 19.2047C19.8165 19.9651 18.9107 20.2586 18.3298 19.7366C18.0575 19.4925 17.807 19.2234 17.5484 18.9649C16.6002 18.0177 15.6526 17.0699 14.7044 16.1227C14.665 16.0853 14.6238 16.0503 14.5726 16.0029ZM15.9605 8.98677C15.9705 5.12689 12.8529 2.00627 8.98261 2.00065C5.12292 1.99503 2.00781 5.09068 1.99094 8.94806C1.97408 12.8173 5.08544 15.9467 8.96762 15.9648C12.8117 15.9829 15.9505 12.8504 15.9605 8.98677Z" fill="#3D3D3D"/>
</symbol>

<symbol id="social-korzina" viewBox="0 0 24 24">
<path d="M17.1567 20.25H9.89163C6.79003 20.25 4.26667 17.7267 4.26667 14.6251V8.85947C4.26667 5.9762 2.82958 3.30739 0.422521 1.72031C-0.00975775 1.43531 -0.129101 0.853876 0.155897 0.421598C0.440896 -0.0107278 1.02228 -0.130118 1.45465 0.154974C2.82874 1.06097 3.94351 2.2559 4.74067 3.63167C4.91293 3.82466 6.30202 5.29699 8.57919 5.29699H19.3748C22.3201 5.24191 24.6254 8.19769 23.8554 11.0406L22.6126 15.9939C21.9839 18.4998 19.7404 20.25 17.1567 20.25ZM5.90513 6.64234C6.06099 7.36238 6.14166 8.10483 6.14166 8.85947V14.6251C6.14166 16.6928 7.8239 18.375 9.89163 18.375H17.1567C18.8792 18.375 20.3748 17.2082 20.794 15.5376L22.0367 10.5844C22.4943 8.89509 21.1243 7.13931 19.3748 7.17198H8.57914C7.54926 7.17198 6.65283 6.94993 5.90513 6.64234ZM9.42289 22.8281C9.42289 22.1809 8.89822 21.6563 8.25102 21.6563C6.69609 21.7182 6.69745 23.9387 8.25102 24C8.89822 24 9.42289 23.4753 9.42289 22.8281ZM18.751 22.8281C18.751 22.1809 18.2263 21.6563 17.5791 21.6563C16.0242 21.7182 16.0255 23.9387 17.5791 24C18.2263 24 18.751 23.4753 18.751 22.8281ZM20.3123 9.98446C20.3123 9.46668 19.8925 9.04697 19.3748 9.04697H8.95414C7.71027 9.09647 7.71121 10.8729 8.95414 10.922H19.3748C19.8925 10.922 20.3123 10.5022 20.3123 9.98446Z" fill="#3D3D3D"/>
</symbol>

<symbol id="social-logout" viewBox="0 0 18 18">
<path d="M17.1601 9.10026H7.12598" stroke="white" stroke-width="1.5" stroke-linecap="round" stroke-linejoin="round"/>
<path d="M14.7212 6.67041L17.1612 9.10041L14.7212 11.5304" stroke="white" stroke-width="1.5" stroke-linecap="round" stroke-linejoin="round"/>
<path d="M12.634 5.35817C12.359 2.37484 11.2424 1.2915 6.8007 1.2915C0.883199 1.2915 0.883199 3.2165 0.883199 8.99984C0.883199 14.7832 0.883199 16.7082 6.8007 16.7082C11.2424 16.7082 12.359 15.6248 12.634 12.6415" stroke="white" stroke-width="1.5" stroke-linecap="round" stroke-linejoin="round"/>
</symbol>

<symbol id="social-shopping" viewBox="0 0 20 20">
                          <g clip-path="url(#clip0_2_1949)">
                            <path d="M14.294 16.8745H8.24077C5.65655 16.8745 3.55412 14.7721 3.55412 12.1879V7.38405C3.55412 4.98175 2.35676 2.75813 0.351225 1.4358C-0.00894369 1.19834 -0.108379 0.713895 0.129078 0.353726C0.366535 -0.00648163 0.850939 -0.105956 1.21119 0.131579C2.35606 0.886442 3.28487 1.88204 3.94905 3.02832C4.09258 3.18911 5.24995 4.41584 7.14726 4.41584H16.142C18.596 4.36995 20.5168 6.83267 19.8752 9.20138L18.8397 13.3284C18.3159 15.4163 16.4466 16.8745 14.294 16.8745ZM4.91926 5.53677C5.04912 6.1367 5.11634 6.7553 5.11634 7.38405V12.1879C5.11634 13.9107 6.51796 15.3123 8.24077 15.3123H14.294C15.7291 15.3123 16.9752 14.3401 17.3245 12.9482L18.3599 8.82121C18.7412 7.41373 17.5997 5.95084 16.142 5.97806H7.14722C6.28913 5.97806 5.54224 5.79305 4.91926 5.53677ZM7.85021 19.0226C7.85021 18.4833 7.41307 18.0462 6.87383 18.0462C5.57828 18.0978 5.57942 19.9479 6.87383 19.999C7.41307 19.999 7.85021 19.5618 7.85021 19.0226ZM15.6222 19.0226C15.6222 18.4833 15.1851 18.0462 14.6459 18.0462C13.3503 18.0978 13.3514 19.9479 14.6459 19.999C15.1851 19.999 15.6222 19.5618 15.6222 19.0226ZM16.9231 8.32138C16.9231 7.88998 16.5734 7.54027 16.142 7.54027H7.45966C6.42329 7.58152 6.42407 9.0616 7.45966 9.10249H16.142C16.5734 9.10249 16.9231 8.75279 16.9231 8.32138Z"
                              fill="#46A358" />
                          </g>
                          <defs>
                            <clipPath id="clip0_2_1949_1">
                              <rect width="20" height="20" fill="white" />
                            </clipPath>
                          </defs>
                        </symbol>

 <symbol id="social-heart" viewBox="0 0 20 20">
                          <path d="M10 18.8873C9.71527 18.8873 9.44077 18.7842 9.22684 18.5968C8.41888 17.8903 7.63992 17.2264 6.95267 16.6408L6.94916 16.6377C4.93423 14.9207 3.19427 13.4378 1.98364 11.9771C0.630341 10.3441 0 8.79578 0 7.10434C0 5.46097 0.563507 3.94485 1.58661 2.83508C2.62192 1.71219 4.04251 1.09375 5.58716 1.09375C6.74164 1.09375 7.79892 1.45874 8.72955 2.1785C9.19922 2.54181 9.62494 2.98645 10 3.5051C10.3752 2.98645 10.8008 2.54181 11.2706 2.1785C12.2012 1.45874 13.2585 1.09375 14.413 1.09375C15.9575 1.09375 17.3782 1.71219 18.4135 2.83508C19.4366 3.94485 20 5.46097 20 7.10434C20 8.79578 19.3698 10.3441 18.0165 11.9769C16.8059 13.4378 15.0661 14.9205 13.0515 16.6374C12.363 17.224 11.5828 17.8889 10.773 18.5971C10.5592 18.7842 10.2846 18.8873 10 18.8873ZM5.58716 2.26532C4.37363 2.26532 3.25882 2.74963 2.44781 3.62915C1.62476 4.52194 1.17142 5.75607 1.17142 7.10434C1.17142 8.52692 1.70013 9.79919 2.88559 11.2296C4.03137 12.6122 5.73563 14.0645 7.70889 15.7462L7.71255 15.7492C8.4024 16.3371 9.18442 17.0036 9.99832 17.7153C10.8171 17.0023 11.6003 16.3347 12.2916 15.7458C14.2647 14.0642 15.9688 12.6122 17.1146 11.2296C18.2999 9.79919 18.8286 8.52692 18.8286 7.10434C18.8286 5.75607 18.3752 4.52194 17.5522 3.62915C16.7413 2.74963 15.6264 2.26532 14.413 2.26532C13.524 2.26532 12.7078 2.54791 11.9872 3.10516C11.3449 3.60199 10.8975 4.23004 10.6352 4.66949C10.5003 4.89548 10.2629 5.03036 10 5.03036C9.73709 5.03036 9.49966 4.89548 9.36478 4.66949C9.10263 4.23004 8.65524 3.60199 8.01285 3.10516C7.29218 2.54791 6.47598 2.26532 5.58716 2.26532Z"
                            fill="#3D3D3D" />
                        </symbol>


<symbol id="social-search" viewBox="0 0 20 20">
                          <g clip-path="url(#clip0_2_1953)">
                            <path d="M14.5656 16.0023C10.5704 19.1859 4.98549 18.3049 2.02729 14.6536C-0.827886 11.1285 -0.64932 6.04314 2.44811 2.82458C5.64856 -0.50074 10.6802 -0.944658 14.3277 1.78316C15.6345 2.76027 16.6104 4.00337 17.246 5.50807C17.8853 7.02151 18.0795 8.59614 17.8578 10.2201C17.6368 11.8365 16.9918 13.2769 15.9423 14.6212C16.0272 14.6767 16.1178 14.7167 16.1827 14.7816C17.3365 15.9305 18.4859 17.0836 19.6397 18.2325C19.9132 18.5047 20.0493 18.8218 19.9682 19.204C19.8071 19.9644 18.9018 20.2579 18.3211 19.7359C18.0489 19.4918 17.7985 19.2227 17.54 18.9642C16.5923 18.0171 15.6451 17.0693 14.6973 16.1221C14.658 16.0847 14.6168 16.0497 14.5656 16.0023ZM15.9529 8.98636C15.9629 5.12659 12.8468 2.00605 8.97825 2.00043C5.12035 1.99481 2.00669 5.09037 1.98983 8.94765C1.97297 12.8168 5.08289 15.9461 8.96326 15.9642C12.8055 15.9823 15.9429 12.8499 15.9529 8.98636Z"
                              fill="#3D3D3D" />
                          </g>
                          <defs>
                            <clipPath id="clip0_2_1953_2">
                              <rect width="19.9913" height="20" fill="white" />
                            </clipPath>
                          </defs>
                        </symbol>


<symbol id="social-find-more" viewBox="0 0 18 18">
                  <path
                    d="M14.8126 8.79428H3.56258"
                    stroke="white"
                    stroke-width="1.5"
                    stroke-linecap="round"
                    stroke-linejoin="round"
                  />
                  <path
                    d="M10.2748 4.2759C10.2748 4.2759 14.8123 6.72165 14.8123 8.79315C14.8123 10.8662 10.2748 13.3127 10.2748 13.3127"
                    stroke="white"
                    stroke-width="1.5"
                    stroke-linecap="round"
                    stroke-linejoin="round"
                  />
                </symbol>


<symbol id="social-read-more" viewBox="0 0 16 16">
                    <path d="M2.66666 7.81714C2.66666 7.56401 2.85477 7.35481 3.09882 7.3217L3.16666 7.31714L13.1667 7.31714C13.4428 7.31714 13.6667 7.541 13.6667 7.81714C13.6667 8.07027 13.4786 8.27947 13.2345 8.31257L13.1667 8.31714H3.16666C2.89052 8.31714 2.66666 8.09328 2.66666 7.81714Z"
                      fill="currentColor" />
                    <path d="M8.78067 4.15517C8.58499 3.96033 8.58431 3.64375 8.77915 3.44807C8.95628 3.27018 9.23402 3.25344 9.43007 3.39825L9.48625 3.44655L13.5196 7.46255C13.698 7.6402 13.7142 7.91895 13.5683 8.11499L13.5196 8.17114L9.48628 12.1878C9.29062 12.3827 8.97403 12.382 8.77918 12.1863C8.60203 12.0085 8.58647 11.7307 8.73211 11.5352L8.78064 11.4792L12.458 7.81666L8.78067 4.15517Z"
                      fill="currentColor" />
                  </symbol>



<symbol id="social-logo" viewBox="0 0 150 35">
<g clip-path="url(#clip0_1_38)">
<path d="M17.15 0C7.67748 0 0 7.67746 0 17.15C0 26.0201 6.73548 33.3175 15.3711 34.207C14.8496 29.9134 15.0436 26.4001 15.7067 23.5135C15.3347 21.7225 14.4898 19.0703 12.5734 17.1864C12.5734 17.1864 13.8348 19.0784 14.5181 21.6214C14.5181 21.6255 14.5221 21.6295 14.5221 21.6335C14.5949 21.9044 14.6596 22.1793 14.7162 22.4623C14.7283 22.527 14.7404 22.5917 14.7526 22.6604C14.8051 22.9515 14.8536 23.2426 14.886 23.5418C5.19513 22.3532 3.12921 13.6569 3.35561 10.3781C13.665 10.9482 15.7754 17.8292 16.0827 22.0985C19.4585 11.0412 30.1843 10.4024 31.0697 10.3781C31.4538 18.8763 25.1509 25.5026 17.6149 26.0807C17.6635 25.8503 17.7201 25.6198 17.7767 25.3934C17.7928 25.3247 17.813 25.26 17.8333 25.1913C17.8777 25.0296 17.9222 24.8679 17.9748 24.7061C17.995 24.6374 18.0192 24.5646 18.0394 24.4959C18.096 24.318 18.1567 24.1442 18.2173 23.9663C18.2335 23.9259 18.2456 23.8854 18.2618 23.845C18.3386 23.6348 18.4195 23.4326 18.5003 23.2305C18.5084 23.2143 18.5125 23.1941 18.5205 23.1779C18.5205 23.1779 18.5205 23.1779 18.5246 23.1779C20.4571 18.5043 24.0229 15.4439 24.0229 15.4439C17.0247 19.4868 15.8441 29.9983 15.6582 34.2231C16.1514 34.2676 16.6446 34.2999 17.15 34.2999C26.6225 34.2999 34.3 26.6225 34.3 17.15C34.3 7.67746 26.6225 0 17.15 0Z" fill="#46A358"/>
<path d="M46.7038 10.7454C48.9719 10.7454 50.8235 11.7198 52.0243 13.4987L49.7764 15.4109C48.9719 14.287 47.9975 13.7048 46.6472 13.7048C44.5691 13.7048 43.2754 15.0713 43.2754 17.1534C43.2754 19.2719 44.6419 20.695 46.8372 20.695C48.0177 20.695 48.9557 20.2826 49.5541 19.5913V19.0091H46.6674V16.2357H52.7763V20.1331C52.1941 21.164 51.3693 21.9888 50.302 22.6235C49.2347 23.242 48.0339 23.5614 46.7038 23.5614C42.9924 23.618 39.9238 20.7314 39.9764 17.1534C39.9198 13.5957 42.9924 10.6888 46.7038 10.7454Z" fill="#46A358"/>
<path d="M61.9577 23.3315L59.1681 19.4907H57.8379V23.3315H54.6157V10.9683H59.4672C62.2204 10.9683 64.246 12.6542 64.246 15.2214C64.246 16.7375 63.5142 17.9948 62.2973 18.7428L65.5559 23.3315H61.9577ZM57.8339 16.6809H59.4834C60.3809 16.6809 60.9631 16.0987 60.9631 15.2214C60.9631 14.3441 60.3809 13.7781 59.4834 13.7781H57.8339V16.6809Z" fill="#46A358"/>
<path d="M66.8335 10.9683H75.4126V13.8711H70.0557V15.5772H73.8763V18.2738H70.0557V20.4287H75.639V23.3315H66.8335V10.9683Z" fill="#46A358"/>
<path d="M77.644 10.9683H86.223V13.8711H80.8662V15.5772H84.6867V18.2738H80.8662V20.4287H86.4494V23.3315H77.644V10.9683Z" fill="#46A358"/>
<path d="M99.4194 10.9681V23.5577H98.3884L91.6812 17.0567V23.3313H88.459V10.7417H89.4899L96.1971 17.1497V10.9681H99.4194Z" fill="#46A358"/>
<path d="M103.264 19.1349C103.996 20.1092 104.764 20.7278 106.017 20.7278C106.862 20.7278 107.291 20.4286 107.291 19.8262C107.291 19.2845 107.008 19.1147 106.034 18.6821L104.76 18.1201C102.718 17.2186 101.631 16.0583 101.631 14.3926C101.631 12.2013 103.43 10.7378 105.957 10.7378C107.998 10.7378 109.442 11.7121 110.19 13.2282L108.035 14.8777C107.436 13.9802 106.875 13.5678 105.993 13.5678C105.318 13.5678 104.889 13.8306 104.889 14.3562C104.889 14.805 105.152 15.0516 105.957 15.3669L107.38 15.9653C109.535 16.8668 110.545 17.9503 110.545 19.6928C110.545 22.0903 108.577 23.5538 106.009 23.5538C103.782 23.5538 101.983 22.4865 101.081 20.7804L103.264 19.1349Z" fill="#46A358"/>
<path d="M112.393 10.9683H115.615V15.4842H120.131V10.9683H123.353V23.3315H120.131V18.387H115.615V23.3315H112.393V10.9683Z" fill="#46A358"/>
<path d="M131.843 10.7417C135.442 10.6649 138.607 13.6081 138.53 17.1497C138.603 20.7277 135.442 23.6143 131.843 23.5577C128.229 23.6143 125.116 20.7277 125.193 17.1497C125.116 13.6081 128.229 10.6689 131.843 10.7417ZM131.86 13.7011C129.874 13.7011 128.488 15.108 128.488 17.1497C128.488 18.1806 128.807 19.0216 129.426 19.6603C130.044 20.2789 130.869 20.5983 131.86 20.5983C133.772 20.5983 135.231 19.2116 135.231 17.1497C135.235 15.108 133.772 13.7011 131.86 13.7011Z" fill="#46A358"/>
<path d="M140.374 10.9683H145.225C147.979 10.9683 150.004 12.6542 150.004 15.2214C150.004 17.7523 147.926 19.4907 145.225 19.4907H143.596V23.3315H140.374V10.9683ZM145.242 16.6809C146.139 16.6809 146.721 16.0987 146.721 15.2214C146.721 14.3441 146.139 13.7781 145.242 13.7781H143.592V16.6809H145.242Z" fill="#46A358"/>
</g>
<defs>
<clipPath id="clip0_1_38">
<rect width="150" height="34.2999" fill="white"/>
</clipPath>
</defs>
</symbol>



 <symbol id="social-address" viewBox="0 0 32 32">
                <path
                  fill-rule="evenodd"
                  clip-rule="evenodd"
                  d="M12.0918 8.92542C12.0918 7.77436 11.1591 6.84166 10.0081 6.84166C8.85787 6.84166 7.92517 7.77436 7.92517 8.92542C7.92517 10.0756 8.85787 11.0083 10.0081 11.0083C11.1591 11.0083 12.0918 10.0756 12.0918 8.92542Z"
                  stroke="#46A358"
                  stroke-width="1.5"
                  stroke-linecap="round"
                  stroke-linejoin="round"
                />
                <path
                  fill-rule="evenodd"
                  clip-rule="evenodd"
                  d="M9.99959 17.5C7.58457 17.5 3.75 13.2989 3.75 8.8322C3.75 5.33539 6.54758 2.5 9.99959 2.5C13.4516 2.5 16.25 5.33539 16.25 8.8322C16.25 13.2989 12.4154 17.5 9.99959 17.5Z"
                  stroke="#46A358"
                  stroke-width="1.5"
                  stroke-linecap="round"
                  stroke-linejoin="round"
                />
              </symbol>

<symbol id="social-email" viewBox="0 0 32 32">
                <path
                  d="M14.6208 7.51582C14.6208 7.51582 11.9457 10.7263 9.98917 10.7263C8.03345 10.7263 5.32835 7.51582 5.32835 7.51582"
                  stroke="#46A358"
                  stroke-width="1.5"
                  stroke-linecap="round"
                  stroke-linejoin="round"
                />
                <path
                  fill-rule="evenodd"
                  clip-rule="evenodd"
                  d="M2.0434 9.97397C2.0434 4.27556 4.02752 2.37665 9.9799 2.37665C15.9323 2.37665 17.9164 4.27556 17.9164 9.97397C17.9164 15.6716 15.9323 17.5713 9.9799 17.5713C4.02752 17.5713 2.0434 15.6716 2.0434 9.97397Z"
                  stroke="#46A358"
                  stroke-width="1.5"
                  stroke-linecap="round"
                  stroke-linejoin="round"
                />
              </symbol>

 <symbol id="social-telephone" viewBox="0 0 20 20">
                <path
                  d="M11.9604 2.29175C15.0446 2.63425 17.4813 5.06758 17.8279 8.15175"
                  stroke="#46A358"
                  stroke-width="1.5"
                  stroke-linecap="round"
                  stroke-linejoin="round"
                />
                <path
                  d="M11.9604 5.24425C13.4363 5.53091 14.5896 6.68508 14.8771 8.16091"
                  stroke="#46A358"
                  stroke-width="1.5"
                  stroke-linecap="round"
                  stroke-linejoin="round"
                />
                <path
                  fill-rule="evenodd"
                  clip-rule="evenodd"
                  d="M6.41709 13.5825C0.668773 7.83352 1.48617 5.20096 2.09214 4.35263C2.16999 4.21552 4.08875 1.34323 6.14551 3.02839C11.2507 7.23288 4.78761 6.63843 9.07452 10.9261C13.3623 15.2128 12.767 8.74996 16.9716 13.8541C18.6568 15.9117 15.7844 17.8303 15.6482 17.9073C14.7998 18.5141 12.1663 19.3315 6.41709 13.5825Z"
                  stroke="#46A358"
                  stroke-width="1.5"
                  stroke-linecap="round"
                  stroke-linejoin="round"
                />
            </symbol>



<symbol id="social-facebook" viewBox="0 0 32 32">
<rect x="0.5" y="0.5" width="31" height="31" rx="4.5" stroke="#46A358" stroke-opacity="0.2"/>
<path d="M14 13.3333H12V16H14V24H17.3333V16H19.7333L20 13.3333H17.3333V12.2C17.3333 11.6 17.4667 11.3333 18.0667 11.3333H20V8H17.4667C15.0667 8 14 9.06667 14 11.0667V13.3333Z" fill="#46A358" fill-opacity="0.6"/>
</symbol>


<symbol id="social-instagram" viewBox="0 0 32 32">
<rect x="0.5" y="0.5" width="31" height="31" rx="4.5" stroke="#46A358" stroke-opacity="0.2"/>
<path d="M16 9.46667C18.1333 9.46667 18.4 9.46667 19.2667 9.53333C21.4667 9.6 22.4667 10.6667 22.5333 12.8C22.6 13.6667 22.6 13.8667 22.6 16C22.6 18.1333 22.6 18.4 22.5333 19.2C22.4667 21.3333 21.4 22.4 19.2667 22.4667C18.4 22.5333 18.2 22.5333 16 22.5333C13.8667 22.5333 13.6 22.5333 12.8 22.4667C10.6 22.4 9.6 21.3333 9.53333 19.2C9.46667 18.3333 9.46667 18.1333 9.46667 16C9.46667 13.8667 9.46667 13.6 9.53333 12.8C9.6 10.6667 10.6667 9.6 12.8 9.53333C13.6 9.46667 13.8667 9.46667 16 9.46667ZM16 8C13.8 8 13.5333 8 12.7333 8.06667C9.8 8.2 8.2 9.8 8.06667 12.7333C8 13.5333 8 13.8 8 16C8 18.2 8 18.4667 8.06667 19.2667C8.2 22.2 9.8 23.8 12.7333 23.9333C13.5333 24 13.8 24 16 24C18.2 24 18.4667 24 19.2667 23.9333C22.2 23.8 23.8 22.2 23.9333 19.2667C24 18.4667 24 18.2 24 16C24 13.8 24 13.5333 23.9333 12.7333C23.8 9.8 22.2 8.2 19.2667 8.06667C18.4667 8 18.2 8 16 8ZM16 11.8667C13.7333 11.8667 11.8667 13.7333 11.8667 16C11.8667 18.2667 13.7333 20.1333 16 20.1333C18.2667 20.1333 20.1333 18.2667 20.1333 16C20.1333 13.7333 18.2667 11.8667 16 11.8667ZM16 18.6667C14.5333 18.6667 13.3333 17.4667 13.3333 16C13.3333 14.5333 14.5333 13.3333 16 13.3333C17.4667 13.3333 18.6667 14.5333 18.6667 16C18.6667 17.4667 17.4667 18.6667 16 18.6667ZM20.2667 10.8C19.7333 10.8 19.3333 11.2 19.3333 11.7333C19.3333 12.2667 19.7333 12.6667 20.2667 12.6667C20.8 12.6667 21.2 12.2667 21.2 11.7333C21.2 11.2 20.8 10.8 20.2667 10.8Z" fill="#46A358" fill-opacity="0.6"/>
</symbol>


<symbol id="social-twitter" viewBox="0 0 32 32">
<rect x="0.5" y="0.5" width="31" height="31" rx="4.5" stroke="#46A358" stroke-opacity="0.2"/>
<path d="M13.0319 22.0036C19.0699 22.0036 22.3718 17.0012 22.3718 12.6636C22.3718 12.5214 22.3689 12.38 22.3624 12.2392C23.0033 11.7759 23.5605 11.1976 24 10.5395C23.4118 10.8008 22.7789 10.9768 22.1149 11.0562C22.7926 10.6498 23.313 10.0067 23.5585 9.24021C22.9241 9.61636 22.2217 9.88969 21.4742 10.0371C20.8749 9.39908 20.0218 9 19.0779 9C17.2648 9 15.7946 10.4702 15.7946 12.2823C15.7946 12.54 15.8236 12.7904 15.8796 13.0308C13.1516 12.8938 10.7324 11.5874 9.11352 9.60125C8.83127 10.0862 8.66877 10.65 8.66877 11.2511C8.66877 12.3899 9.24837 13.3953 10.1297 13.9836C9.59121 13.9671 9.08531 13.8189 8.64293 13.5729C8.6422 13.5866 8.6422 13.6004 8.6422 13.6148C8.6422 15.2047 9.77392 16.532 11.2758 16.8329C11.0001 16.908 10.71 16.9484 10.4105 16.9484C10.199 16.9484 9.99338 16.9273 9.79339 16.8893C10.2112 18.1933 11.4232 19.1425 12.8601 19.1693C11.7364 20.0499 10.3209 20.5745 8.78305 20.5745C8.51827 20.5745 8.25695 20.5594 8 20.529C9.45273 21.46 11.1777 22.0036 13.0319 22.0036Z" fill="#46A358" fill-opacity="0.6"/>
</symbol>


<symbol id="social-linkedin" viewBox="0 0 32 32">
<rect x="0.5" y="0.5" width="31" height="31" rx="4.5" stroke="#46A358" stroke-opacity="0.2"/>
<path d="M11.3333 9.66667C11.3333 10.6 10.6 11.3333 9.66667 11.3333C8.73333 11.3333 8 10.6 8 9.66667C8 8.73333 8.73333 8 9.66667 8C10.6 8 11.3333 8.73333 11.3333 9.66667ZM11.3333 12.6667H8V23.3333H11.3333V12.6667ZM16.6667 12.6667H13.3333V23.3333H16.6667V17.7333C16.6667 14.6 20.6667 14.3333 20.6667 17.7333V23.3333H24V16.6C24 11.3333 18.0667 11.5333 16.6667 14.1333V12.6667Z" fill="#46A358" fill-opacity="0.6"/>
</symbol>


<symbol id="social-youtube" viewBox="0 0 32 32">
<rect x="0.5" y="0.5" width="31" height="31" rx="4.5" stroke="#46A358" stroke-opacity="0.2"/>
<path fill-rule="evenodd" clip-rule="evenodd" d="M22.1653 13.4299L22.168 13.4306C22.168 13.4306 22.1676 13.4305 22.1667 13.4303C22.1663 13.4302 22.1658 13.4301 22.1653 13.4299ZM11.3244 13.3569C13.9176 13.1957 18.7483 13.1957 21.3415 13.3569L21.3422 13.3644C21.4047 13.9972 21.4299 14.8414 21.4299 16.0192C21.4299 17.1824 21.4053 18.0269 21.3441 18.665C18.6962 18.7703 13.9713 18.7703 11.3228 18.665C11.261 18.0332 11.236 17.1914 11.236 16.0192C11.236 14.8414 11.2612 13.9972 11.3237 13.3644L11.3244 13.3569ZM22.2422 18.6111C22.2422 18.6111 22.2405 18.6115 22.237 18.6122L22.2422 18.6111ZM10.4979 18.6077L10.5006 18.6084C10.4988 18.6079 10.4979 18.6077 10.4979 18.6077ZM7 16.0192C7 20.8412 7.38887 22.63 10.4221 22.8633C13.222 23.0189 19.4439 23.0189 22.2438 22.8633C25.277 22.7078 25.6659 20.8412 25.6659 16.0192C25.6659 11.1971 25.277 9.40832 22.2438 9.17499C19.4439 8.94167 13.222 8.94167 10.4221 9.17499C7.38887 9.40832 7 11.1971 7 16.0192ZM10.4979 13.4306C10.4979 13.4306 10.4988 13.4304 10.5007 13.4299L10.4979 13.4306ZM16.7823 17.7389C15.5039 18.3781 13.9997 17.4484 13.9997 16.0192C13.9997 14.5899 15.5039 13.6602 16.7823 14.2994C18.1994 15.008 18.1994 17.0303 16.7823 17.7389Z" fill="#46A358" fill-opacity="0.6"/>
</symbol>

</svg>

